<svg xmlns="http://www.w3.org/2000/svg" viewBox="0 0 96 96" width="960" height="960">
  <defs>
    <radialGradient id="glow" cx="50%" cy="50%" r="50%">
      <stop offset="0%" stop-color="#F4F2EE" stop-opacity="0.85"></stop>
      <stop offset="30%" stop-color="#F4F2EE" stop-opacity="0.30"></stop>
      <stop offset="65%" stop-color="#F4F2EE" stop-opacity="0.08"></stop>
      <stop offset="100%" stop-color="#F4F2EE" stop-opacity="0"></stop>
    </radialGradient>
    <linearGradient id="tile" x1="0" y1="0" x2="0.6" y2="1">
      <stop offset="0%" stop-color="#202529"></stop><stop offset="100%" stop-color="#131619"></stop>
    </linearGradient>
  </defs>
  <rect width="96" height="96" rx="12" fill="url(#tile)"></rect>
  <g><circle cx="54.52" cy="40.60" r="1.7" fill="#4FD1C5" opacity="0.46"></circle><circle cx="54.52" cy="85.63" r="1.7" fill="#E0A85B" opacity="0.61"></circle><line x1="54.52" y1="85.63" x2="13.25" y2="28.32" stroke="#E0A85B" stroke-width="2" opacity="0.47"></line><line x1="13.25" y1="73.35" x2="54.52" y2="40.60" stroke="#4FD1C5" stroke-width="2" opacity="0.47"></line><circle cx="13.25" cy="28.32" r="1.7" fill="#E0A85B" opacity="0.63"></circle><line x1="82.75" y1="22.65" x2="54.52" y2="85.63" stroke="#E0A85B" stroke-width="2" opacity="0.51"></line><line x1="82.75" y1="67.68" x2="54.52" y2="40.60" stroke="#4FD1C5" stroke-width="2" opacity="0.51"></line><line x1="82.75" y1="22.65" x2="13.25" y2="28.32" stroke="#E0A85B" stroke-width="2" opacity="0.53"></line><line x1="41.48" y1="10.37" x2="54.52" y2="40.60" stroke="#4FD1C5" stroke-width="2" opacity="0.53"></line><circle cx="82.75" cy="22.65" r="1.7" fill="#E0A85B" opacity="0.72"></circle></g>
  <circle cx="48" cy="48" r="22" fill="url(#glow)"></circle>
  <text x="48" y="49" text-anchor="middle" dominant-baseline="central" font-size="17" font-family="&#39;Noto Sans Devanagari&#39;,&#39;Nirmala UI&#39;,&#39;Devanagari MT&#39;,serif" font-weight="500" fill="#F4F2EE">ॐ</text>
  <g><circle cx="13.25" cy="73.35" r="1.7" fill="#4FD1C5" opacity="0.78"></circle><line x1="54.52" y1="85.63" x2="41.48" y2="55.40" stroke="#E0A85B" stroke-width="2" opacity="0.67"></line><line x1="13.25" y1="73.35" x2="82.75" y2="67.68" stroke="#4FD1C5" stroke-width="2" opacity="0.67"></line><line x1="13.25" y1="28.32" x2="41.48" y2="55.40" stroke="#E0A85B" stroke-width="2" opacity="0.69"></line><line x1="13.25" y1="73.35" x2="41.48" y2="10.37" stroke="#4FD1C5" stroke-width="2" opacity="0.69"></line><circle cx="82.75" cy="67.68" r="1.7" fill="#4FD1C5" opacity="0.87"></circle><line x1="82.75" y1="22.65" x2="41.48" y2="55.40" stroke="#E0A85B" stroke-width="2" opacity="0.73"></line><line x1="41.48" y1="10.37" x2="82.75" y2="67.68" stroke="#4FD1C5" stroke-width="2" opacity="0.73"></line><circle cx="41.48" cy="10.37" r="1.7" fill="#4FD1C5" opacity="0.89"></circle><circle cx="41.48" cy="55.40" r="1.7" fill="#E0A85B" opacity="1.00"></circle></g>
</svg>